PathFileType	4	(X/Y/Z)	5_coords_data.trc
DataRate	CameraRate	NumFrames	NumMarkers	Units	OrigDataRate	OrigDataStartFrame	OrigNumFrames
30.0	30.0	4	21	m	30.0	1	57
Frame#	Time	THUMB_TIP	THUMB_IP	THUMB_MCP	THUMB_CMC	INDEX_TIP	INDEX_DIP	INDEX_PIP	INDEX_MCP	MIDDLE_TIP	MIDDLE_DIP	MIDDLE_PIP	MIDDLE_MCP	RING_TIP	RING_DIP	RING_PIP	RING_MCP	PINKY_TIP	PINKY_DIP	PINKY_PIP	PINKY_MCP	WRIST
X1	Y1	Z1	X2	Y2	Z2	X3	Y3	Z3	X4	Y4	Z4	X5	Y5	Z5	X6	Y6	Z6	X7	Y7	Z7	X8	Y8	Z8	X9	Y9	Z9	X10	Y10	Z10	X11	Y11	Z11	X12	Y12	Z12	X13	Y13	Z13	X14	Y14	Z14	X15	Y15	Z15	X16	Y16	Z16	X17	Y17	Z17	X18	Y18	Z18	X19	Y19	Z19	X20	Y20	Z20	X21	Y21	Z21
0	-2.749317978547796e-18	0.4589068045107283	-0.04639271049552729	-0.17074797665331862	0.4679430151106214	-0.04215815011513446	-0.15004977875158848	0.4614582436620309	-0.029154048705476	-0.12252413460314267	0.4704456302077593	-0.028802614490466283	-0.07883210584422397	0.5693983147487205	0.025657105686726966	-0.1740900777402315	0.5558626491002135	0.022661721962927928	-0.16243617574137165	0.5379505739088242	0.018225150891295394	-0.1453632664267771	0.5119346968038766	0.002185596620731256	-0.11570617737100682	0.5984115185781123	0.04314293857241458	-0.13311106971764491	0.5822150405472591	0.037149571320713504	-0.1276563792239201	0.5569324963178229	0.026993395801369835	-0.11730965964200034	0.5200704030434558	0.008541879803426689	-0.10007958251479318	0.6002732591248454	0.04515518395834395	-0.10320349451915312	0.5856708476119576	0.03518120325683993	-0.09969788658695178	0.5644740951251577	0.02394776259068876	-0.09301301756703764	0.5304567027231627	0.003949504368110923	-0.08420350474101872	0.6003739319742849	0.021682785057724474	-0.0563592894646589	0.5850354513105431	0.014475737267070854	-0.05876542185321337	0.5657833045439309	0.006594421815789175	-0.06160297901285122	0.532967344295524	-0.007453509447433282	-0.06676552016995269	0.4622830810018609	-0.023011742144276925	-0.051989820119430985
1	0.03333333333333339	0.4589004330849332	-0.04676022706105809	-0.1709042480084799	0.4678679972097749	-0.04231765129472842	-0.15021980181750652	0.4615531574795948	-0.029352939756735696	-0.12263612813326392	0.4703801001695307	-0.02848418473652259	-0.07891862194336965	0.5692526159843009	0.025674171338934793	-0.17427011310542084	0.5557985580786374	0.02263924980511267	-0.16253224374362435	0.5378109419091277	0.018077684407527994	-0.14557206630758462	0.5114523095985736	0.002636507708031477	-0.11590004819536412	0.5986519940518706	0.043149849081660974	-0.1328786781347991	0.5825239303899481	0.03696063060267041	-0.12744000760457852	0.5571436878411741	0.026961479026174517	-0.11717990010437843	0.5206097482702285	0.008057424393336898	-0.09974270139400085	0.600354415649343	0.045319468228704585	-0.10263115404858084	0.5857655826609384	0.03542965761758321	-0.09884201191445724	0.5645763481080905	0.024050658915017786	-0.09238331958617493	0.5308638548994067	0.003477205090775426	-0.0837275912288256	0.6008210854937925	0.02097600022145507	-0.056702293474203636	0.5854088700816036	0.013904354318951873	-0.059037981877629486	0.5660259581323869	0.0063183633618180135	-0.06178888801328605	0.5329207069073775	-0.007143261468914308	-0.06665822567313553	0.4622830810018609	-0.023011742144276925	-0.051989820119430985
2	0.06666666666666676	0.4589463552822366	-0.04704496456117535	-0.17101536475399487	0.4678469779776414	-0.04244307077689102	-0.15033683750391705	0.4616428254440361	-0.029508692804596892	-0.12271383336226743	0.4703356631092038	-0.02824700715795092	-0.07897903345811687	0.569113554982725	0.025708902272738032	-0.17440719064609586	0.5557251848646894	0.0226416828295416	-0.16260279695265398	0.537687293606755	0.017982066278842468	-0.14572285958406805	0.5110878952079926	0.0029799438291254754	-0.11604046714633459	0.5988083086012967	0.04320058225663104	-0.13267146643546693	0.5827331396376648	0.036857993022093805	-0.1272529329998764	0.5572771916473973	0.026973143743134975	-0.11706990709157872	0.5210073461614908	0.0077002584331564705	-0.09948576306188875	0.6003701899361908	0.045500202796066036	-0.10216441856774294	0.5857918494651749	0.03567606014592528	-0.09816964569549765	0.5646059754520442	0.02418834236948786	-0.09189500932446562	0.5311483185074486	0.0031425346413933575	-0.08338736553491743	0.6011400464145245	0.02044422325675488	-0.056945413281601714	0.5856728367699015	0.013475929792722052	-0.05922758593247501	0.5661942194615811	0.006116439682377517	-0.06191708255298789	0.5328859342376278	-0.006912555287634237	-0.06657399961378901	0.4622830810018608	-0.023011742144276925	-0.051989820119430985
3	0.10000000000000014	0.45903619409931407	-0.047255509113649175	-0.17109252153054666	0.46787281851291107	-0.04253844660124306	-0.15041249758890005	0.46172808560067546	-0.029626605019549834	-0.122765678524014	0.4703102788946305	-0.0280817678034897	-0.0790181136061689	0.5689954420072407	0.02575092065353335	-0.17450886082770983	0.5556579323484503	0.022658113430876536	-0.16265367716885593	0.5375900506725613	0.017923790766450454	-0.14582668475621213	0.5108325301742584	0.0032261099815359406	-0.11613410369077325	0.5989098490795052	0.043275442311961676	-0.13248450353012176	0.5828726440584724	0.036818196366140254	-0.12708894703347265	0.5573607414577396	0.027009198208220453	-0.11697282471172055	0.5212879705872931	0.0074519283122391755	-0.09929752225478887	0.6003747382822284	0.04564400596418294	-0.10178208691572413	0.585801783883043	0.03586778646138322	-0.09765237357066714	0.5646140181107304	0.024305094252104364	-0.09152353114724784	0.5313423987957857	0.0029132860960573437	-0.08315031635385531	0.6013625205197808	0.020052093710120844	-0.05710684063913754	0.5858562376880051	0.013158676757004772	-0.059350943010125584	0.566310362170058	0.005965241408749433	-0.06200146317178931	0.5328627320254711	-0.0067548718436134525	-0.06651125336180766	0.4622830810018609	-0.023011742144276925	-0.051989820119430985
